<mxfile host="app.diagrams.net" modified="2021-09-16T07:16:28.171Z" agent="5.0 (Macintosh; Intel Mac OS X 10_15_4) AppleWebKit/537.36 (KHTML, like Gecko) Chrome/93.0.4577.63 Safari/537.36" etag="2ilw4E24L8tzTbdBdzWC" version="15.2.7" type="github" pages="2">
  <diagram id="M1z0iCmiGLwvpkXlTOR0" name="Page-1">
    <mxGraphModel dx="1038" dy="596" grid="1" gridSize="10" guides="1" tooltips="1" connect="1" arrows="1" fold="1" page="1" pageScale="1" pageWidth="1169" pageHeight="827" math="0" shadow="0">
      <root>
        <mxCell id="0" />
        <mxCell id="1" parent="0" />
        <mxCell id="O-yn0B9JO9yRSRZrxtQq-59" value="" style="rounded=0;whiteSpace=wrap;html=1;fillColor=#FFFFFF;strokeColor=none;" vertex="1" parent="1">
          <mxGeometry x="70" y="250" width="670" height="350" as="geometry" />
        </mxCell>
        <mxCell id="O-yn0B9JO9yRSRZrxtQq-37" value="" style="group" vertex="1" connectable="0" parent="1">
          <mxGeometry x="80" y="265" width="314" height="310" as="geometry" />
        </mxCell>
        <mxCell id="O-yn0B9JO9yRSRZrxtQq-38" value="" style="group" vertex="1" connectable="0" parent="O-yn0B9JO9yRSRZrxtQq-37">
          <mxGeometry width="314" height="310" as="geometry" />
        </mxCell>
        <mxCell id="O-yn0B9JO9yRSRZrxtQq-93" value="" style="rounded=1;whiteSpace=wrap;html=1;arcSize=3;strokeColor=#CCCCCC;" vertex="1" parent="O-yn0B9JO9yRSRZrxtQq-38">
          <mxGeometry x="16" y="14" width="120" height="216.73469387755102" as="geometry" />
        </mxCell>
        <mxCell id="O-yn0B9JO9yRSRZrxtQq-13" value="" style="rounded=1;whiteSpace=wrap;html=1;arcSize=3;strokeColor=#808080;" vertex="1" parent="O-yn0B9JO9yRSRZrxtQq-38">
          <mxGeometry x="12" y="20" width="120" height="216.73469387755102" as="geometry" />
        </mxCell>
        <mxCell id="O-yn0B9JO9yRSRZrxtQq-12" value="" style="rounded=1;whiteSpace=wrap;html=1;arcSize=3;strokeColor=#4D4D4D;" vertex="1" parent="O-yn0B9JO9yRSRZrxtQq-38">
          <mxGeometry x="8" y="26.22" width="120" height="222.78" as="geometry" />
        </mxCell>
        <mxCell id="O-yn0B9JO9yRSRZrxtQq-11" value="" style="rounded=1;whiteSpace=wrap;html=1;arcSize=3;strokeColor=#333333;" vertex="1" parent="O-yn0B9JO9yRSRZrxtQq-38">
          <mxGeometry x="4" y="32.24" width="120" height="226.76" as="geometry" />
        </mxCell>
        <mxCell id="O-yn0B9JO9yRSRZrxtQq-2" value="&lt;b&gt;Service(s)&lt;br&gt;&lt;br&gt;&lt;br&gt;&lt;br&gt;&lt;br&gt;&lt;br&gt;&lt;br&gt;&lt;br&gt;&lt;br&gt;&lt;br&gt;&lt;br&gt;&lt;br&gt;&lt;br&gt;&lt;br&gt;&lt;br&gt;&lt;br&gt;&lt;/b&gt;" style="rounded=1;whiteSpace=wrap;html=1;arcSize=3;" vertex="1" parent="O-yn0B9JO9yRSRZrxtQq-38">
          <mxGeometry y="38.269999999999996" width="120" height="230.73" as="geometry" />
        </mxCell>
        <mxCell id="O-yn0B9JO9yRSRZrxtQq-6" value="Policy&lt;br&gt;(priority, etc)" style="shape=cylinder3;whiteSpace=wrap;html=1;boundedLbl=1;backgroundOutline=1;size=6.166666666666657;" vertex="1" parent="O-yn0B9JO9yRSRZrxtQq-38">
          <mxGeometry x="20" y="212.98" width="75" height="40.02" as="geometry" />
        </mxCell>
        <mxCell id="O-yn0B9JO9yRSRZrxtQq-7" value="&lt;font style=&quot;font-size: 8px&quot;&gt;Driver Status&lt;/font&gt;" style="shape=cylinder3;whiteSpace=wrap;html=1;boundedLbl=1;backgroundOutline=1;size=6.166666666666657;" vertex="1" parent="O-yn0B9JO9yRSRZrxtQq-38">
          <mxGeometry x="20" y="111.59999999999998" width="75" height="40.02" as="geometry" />
        </mxCell>
        <mxCell id="O-yn0B9JO9yRSRZrxtQq-63" value="" style="outlineConnect=0;dashed=0;verticalLabelPosition=bottom;verticalAlign=top;align=center;html=1;shape=mxgraph.aws3.queue;fillColor=#D9A741;gradientColor=none;" vertex="1" parent="O-yn0B9JO9yRSRZrxtQq-38">
          <mxGeometry x="155" y="53" width="65" height="24" as="geometry" />
        </mxCell>
        <mxCell id="O-yn0B9JO9yRSRZrxtQq-70" value="Queue" style="text;html=1;strokeColor=none;fillColor=none;align=center;verticalAlign=middle;whiteSpace=wrap;rounded=0;" vertex="1" parent="O-yn0B9JO9yRSRZrxtQq-38">
          <mxGeometry x="167.5" y="35" width="40" height="20" as="geometry" />
        </mxCell>
        <mxCell id="O-yn0B9JO9yRSRZrxtQq-41" value="&lt;font style=&quot;font-size: 8px&quot;&gt;Log&lt;/font&gt;" style="shape=cylinder3;whiteSpace=wrap;html=1;boundedLbl=1;backgroundOutline=1;size=6.166666666666657;" vertex="1" parent="O-yn0B9JO9yRSRZrxtQq-38">
          <mxGeometry x="20" y="164.59" width="75" height="40" as="geometry" />
        </mxCell>
        <mxCell id="O-yn0B9JO9yRSRZrxtQq-4" value="Orders" style="shape=cylinder3;whiteSpace=wrap;html=1;boundedLbl=1;backgroundOutline=1;size=6.166666666666657;" vertex="1" parent="O-yn0B9JO9yRSRZrxtQq-38">
          <mxGeometry x="20" y="65" width="75" height="40" as="geometry" />
        </mxCell>
        <mxCell id="O-yn0B9JO9yRSRZrxtQq-15" value="" style="edgeStyle=orthogonalEdgeStyle;rounded=0;orthogonalLoop=1;jettySize=auto;html=1;entryX=0;entryY=0.5;entryDx=0;entryDy=0;entryPerimeter=0;endArrow=block;endFill=1;" edge="1" parent="O-yn0B9JO9yRSRZrxtQq-38" source="O-yn0B9JO9yRSRZrxtQq-4" target="O-yn0B9JO9yRSRZrxtQq-63">
          <mxGeometry relative="1" as="geometry">
            <mxPoint x="150" y="65" as="targetPoint" />
            <Array as="points">
              <mxPoint x="110" y="85" />
              <mxPoint x="110" y="65" />
            </Array>
          </mxGeometry>
        </mxCell>
        <mxCell id="O-yn0B9JO9yRSRZrxtQq-26" value="&lt;b&gt;Feature Store&lt;br&gt;&lt;br&gt;&lt;br&gt;&lt;br&gt;&lt;br&gt;&lt;br&gt;&lt;/b&gt;" style="rounded=1;whiteSpace=wrap;html=1;arcSize=3;fillColor=#E6E6E6;strokeColor=none;" vertex="1" parent="1">
          <mxGeometry x="320" y="492" width="310" height="93" as="geometry" />
        </mxCell>
        <mxCell id="O-yn0B9JO9yRSRZrxtQq-24" value="&lt;b&gt;Distribution System&lt;br&gt;&lt;/b&gt;&lt;br&gt;&lt;br&gt;&lt;br&gt;&lt;br&gt;&lt;br&gt;&lt;br&gt;&lt;br&gt;&lt;br&gt;&lt;br&gt;&lt;br&gt;&lt;br&gt;&lt;br&gt;" style="rounded=1;whiteSpace=wrap;html=1;arcSize=3;fillColor=#E6E6E6;strokeColor=none;" vertex="1" parent="1">
          <mxGeometry x="320" y="270" width="310" height="203" as="geometry" />
        </mxCell>
        <mxCell id="O-yn0B9JO9yRSRZrxtQq-20" style="edgeStyle=orthogonalEdgeStyle;rounded=0;orthogonalLoop=1;jettySize=auto;html=1;exitX=1;exitY=0.5;exitDx=0;exitDy=0;exitPerimeter=0;strokeColor=#CC99FF;entryX=-0.004;entryY=0.664;entryDx=0;entryDy=0;entryPerimeter=0;endArrow=block;endFill=1;" edge="1" parent="1" source="O-yn0B9JO9yRSRZrxtQq-6" target="O-yn0B9JO9yRSRZrxtQq-14">
          <mxGeometry relative="1" as="geometry">
            <mxPoint x="340" y="368" as="targetPoint" />
            <Array as="points">
              <mxPoint x="270" y="493" />
              <mxPoint x="270" y="370" />
            </Array>
          </mxGeometry>
        </mxCell>
        <mxCell id="O-yn0B9JO9yRSRZrxtQq-16" style="edgeStyle=orthogonalEdgeStyle;rounded=0;orthogonalLoop=1;jettySize=auto;html=1;endArrow=block;endFill=1;" edge="1" parent="1" source="O-yn0B9JO9yRSRZrxtQq-7" target="O-yn0B9JO9yRSRZrxtQq-14">
          <mxGeometry relative="1" as="geometry" />
        </mxCell>
        <mxCell id="O-yn0B9JO9yRSRZrxtQq-14" value="&lt;b&gt;Gateway&lt;br&gt;&lt;/b&gt;&lt;br&gt;&lt;br&gt;&lt;br&gt;&lt;br&gt;&lt;br&gt;" style="whiteSpace=wrap;html=1;rounded=1;arcSize=3;" vertex="1" parent="1">
          <mxGeometry x="347" y="310" width="110" height="90" as="geometry" />
        </mxCell>
        <mxCell id="O-yn0B9JO9yRSRZrxtQq-50" style="edgeStyle=orthogonalEdgeStyle;rounded=0;orthogonalLoop=1;jettySize=auto;html=1;strokeColor=#000000;exitX=0.5;exitY=0;exitDx=0;exitDy=0;exitPerimeter=0;endArrow=none;endFill=0;" edge="1" parent="1" source="O-yn0B9JO9yRSRZrxtQq-21">
          <mxGeometry relative="1" as="geometry">
            <mxPoint x="550" y="518.5" as="sourcePoint" />
            <mxPoint x="395" y="460" as="targetPoint" />
            <Array as="points">
              <mxPoint x="555" y="460" />
              <mxPoint x="395" y="460" />
            </Array>
          </mxGeometry>
        </mxCell>
        <mxCell id="O-yn0B9JO9yRSRZrxtQq-21" value="Driver&amp;nbsp; Features" style="shape=cylinder3;whiteSpace=wrap;html=1;boundedLbl=1;backgroundOutline=1;size=6.166666666666657;" vertex="1" parent="1">
          <mxGeometry x="520" y="518.5" width="70" height="41.5" as="geometry" />
        </mxCell>
        <mxCell id="O-yn0B9JO9yRSRZrxtQq-48" style="edgeStyle=orthogonalEdgeStyle;rounded=0;orthogonalLoop=1;jettySize=auto;html=1;strokeColor=#000000;entryX=0.433;entryY=1.002;entryDx=0;entryDy=0;entryPerimeter=0;endArrow=block;endFill=1;" edge="1" parent="1" source="O-yn0B9JO9yRSRZrxtQq-25" target="O-yn0B9JO9yRSRZrxtQq-14">
          <mxGeometry relative="1" as="geometry">
            <Array as="points" />
          </mxGeometry>
        </mxCell>
        <mxCell id="O-yn0B9JO9yRSRZrxtQq-25" value="Restaurant&amp;nbsp; Features" style="shape=cylinder3;whiteSpace=wrap;html=1;boundedLbl=1;backgroundOutline=1;size=6.166666666666657;" vertex="1" parent="1">
          <mxGeometry x="360" y="518.5" width="70" height="41.5" as="geometry" />
        </mxCell>
        <mxCell id="O-yn0B9JO9yRSRZrxtQq-35" style="edgeStyle=orthogonalEdgeStyle;rounded=0;orthogonalLoop=1;jettySize=auto;html=1;entryX=0;entryY=0.5;entryDx=0;entryDy=0;exitX=1;exitY=0.5;exitDx=0;exitDy=0;startArrow=block;startFill=1;endArrow=block;endFill=1;" edge="1" parent="1" source="O-yn0B9JO9yRSRZrxtQq-14" target="O-yn0B9JO9yRSRZrxtQq-34">
          <mxGeometry relative="1" as="geometry">
            <mxPoint x="490" y="357" as="sourcePoint" />
          </mxGeometry>
        </mxCell>
        <mxCell id="O-yn0B9JO9yRSRZrxtQq-34" value="&lt;font color=&quot;#ffffff&quot;&gt;&lt;b&gt;ML Solution&lt;/b&gt;&lt;br&gt;&lt;br&gt;&lt;br&gt;&lt;br&gt;&lt;/font&gt;" style="rounded=1;whiteSpace=wrap;html=1;arcSize=3;fillColor=#99CCFF;strokeColor=none;" vertex="1" parent="1">
          <mxGeometry x="510" y="310" width="110" height="90" as="geometry" />
        </mxCell>
        <mxCell id="O-yn0B9JO9yRSRZrxtQq-44" style="edgeStyle=orthogonalEdgeStyle;rounded=0;orthogonalLoop=1;jettySize=auto;html=1;entryX=0;entryY=0.75;entryDx=0;entryDy=0;strokeColor=#CC99FF;endArrow=block;endFill=1;" edge="1" parent="1" source="O-yn0B9JO9yRSRZrxtQq-6" target="O-yn0B9JO9yRSRZrxtQq-42">
          <mxGeometry relative="1" as="geometry">
            <Array as="points">
              <mxPoint x="270" y="493" />
              <mxPoint x="270" y="439" />
              <mxPoint x="347" y="439" />
            </Array>
          </mxGeometry>
        </mxCell>
        <mxCell id="O-yn0B9JO9yRSRZrxtQq-56" style="edgeStyle=orthogonalEdgeStyle;rounded=0;orthogonalLoop=1;jettySize=auto;html=1;entryX=0.145;entryY=0;entryDx=0;entryDy=1.7883333333333304;entryPerimeter=0;endArrow=block;endFill=1;strokeColor=#000000;" edge="1" parent="1" source="O-yn0B9JO9yRSRZrxtQq-42" target="O-yn0B9JO9yRSRZrxtQq-25">
          <mxGeometry relative="1" as="geometry">
            <Array as="points">
              <mxPoint x="362" y="480" />
              <mxPoint x="370" y="480" />
            </Array>
          </mxGeometry>
        </mxCell>
        <mxCell id="O-yn0B9JO9yRSRZrxtQq-57" style="edgeStyle=orthogonalEdgeStyle;rounded=0;orthogonalLoop=1;jettySize=auto;html=1;entryX=0.216;entryY=0.02;entryDx=0;entryDy=0;entryPerimeter=0;endArrow=block;endFill=1;strokeColor=#000000;" edge="1" parent="1" source="O-yn0B9JO9yRSRZrxtQq-42" target="O-yn0B9JO9yRSRZrxtQq-21">
          <mxGeometry relative="1" as="geometry">
            <Array as="points">
              <mxPoint x="362" y="480" />
              <mxPoint x="535" y="480" />
            </Array>
          </mxGeometry>
        </mxCell>
        <mxCell id="O-yn0B9JO9yRSRZrxtQq-42" value="ETL&lt;br&gt;Jobs" style="whiteSpace=wrap;html=1;rounded=1;arcSize=3;" vertex="1" parent="1">
          <mxGeometry x="347" y="406.96" width="43" height="44" as="geometry" />
        </mxCell>
        <mxCell id="O-yn0B9JO9yRSRZrxtQq-46" style="edgeStyle=orthogonalEdgeStyle;rounded=0;orthogonalLoop=1;jettySize=auto;html=1;entryX=0;entryY=0.5;entryDx=0;entryDy=0;endArrow=block;endFill=1;" edge="1" parent="1" source="O-yn0B9JO9yRSRZrxtQq-41" target="O-yn0B9JO9yRSRZrxtQq-42">
          <mxGeometry relative="1" as="geometry" />
        </mxCell>
        <mxCell id="O-yn0B9JO9yRSRZrxtQq-61" value="&lt;span style=&quot;color: rgb(255 , 255 , 255) ; font-family: &amp;#34;helvetica&amp;#34;&quot;&gt;Distribute API&lt;/span&gt;&lt;font color=&quot;#ffffff&quot;&gt;&lt;br&gt;&lt;/font&gt;" style="rounded=1;whiteSpace=wrap;html=1;arcSize=3;fillColor=#004C99;strokeColor=none;" vertex="1" parent="1">
          <mxGeometry x="525" y="357.25" width="80" height="28.5" as="geometry" />
        </mxCell>
        <mxCell id="O-yn0B9JO9yRSRZrxtQq-62" value="&lt;font style=&quot;font-size: 11px ; line-height: 60%&quot;&gt;(Can be used by various services)&lt;/font&gt;" style="text;html=1;strokeColor=none;fillColor=none;align=center;verticalAlign=middle;whiteSpace=wrap;rounded=0;" vertex="1" parent="1">
          <mxGeometry x="382.5" y="565" width="185" height="20" as="geometry" />
        </mxCell>
        <mxCell id="O-yn0B9JO9yRSRZrxtQq-67" style="edgeStyle=orthogonalEdgeStyle;rounded=0;orthogonalLoop=1;jettySize=auto;html=1;endArrow=block;endFill=1;strokeColor=#000000;entryX=0.006;entryY=0.219;entryDx=0;entryDy=0;entryPerimeter=0;" edge="1" parent="1" source="O-yn0B9JO9yRSRZrxtQq-63" target="O-yn0B9JO9yRSRZrxtQq-14">
          <mxGeometry relative="1" as="geometry">
            <mxPoint x="340" y="330" as="targetPoint" />
          </mxGeometry>
        </mxCell>
        <mxCell id="O-yn0B9JO9yRSRZrxtQq-68" value="&lt;font face=&quot;helvetica&quot; color=&quot;#ffffff&quot;&gt;Refresh&lt;br&gt;Status&lt;br&gt;&lt;/font&gt;" style="rounded=1;whiteSpace=wrap;html=1;arcSize=3;fillColor=#004C99;strokeColor=none;" vertex="1" parent="1">
          <mxGeometry x="362" y="330.75" width="80" height="28.5" as="geometry" />
        </mxCell>
        <mxCell id="O-yn0B9JO9yRSRZrxtQq-69" value="&lt;span style=&quot;color: rgb(255 , 255 , 255) ; font-family: &amp;#34;helvetica&amp;#34;&quot;&gt;Data Preprocess&lt;/span&gt;&lt;font face=&quot;helvetica&quot; color=&quot;#ffffff&quot;&gt;&lt;br&gt;&lt;/font&gt;" style="rounded=1;whiteSpace=wrap;html=1;arcSize=3;fillColor=#004C99;strokeColor=none;" vertex="1" parent="1">
          <mxGeometry x="362" y="365.25" width="80" height="28.5" as="geometry" />
        </mxCell>
        <mxCell id="O-yn0B9JO9yRSRZrxtQq-85" value="&lt;p&gt;&lt;font style=&quot;font-size: 6px&quot;&gt;&lt;font&gt;Batch&lt;br&gt;&lt;/font&gt;&lt;font&gt;pull&lt;/font&gt;&lt;/font&gt;&lt;/p&gt;" style="text;html=1;strokeColor=none;fillColor=none;align=center;verticalAlign=middle;whiteSpace=wrap;rounded=0;" vertex="1" parent="1">
          <mxGeometry x="300" y="320" width="40" height="20" as="geometry" />
        </mxCell>
        <mxCell id="O-yn0B9JO9yRSRZrxtQq-86" value="" style="endArrow=block;html=1;strokeColor=#000000;exitX=0.697;exitY=1.002;exitDx=0;exitDy=0;exitPerimeter=0;endFill=1;" edge="1" parent="1" source="O-yn0B9JO9yRSRZrxtQq-14">
          <mxGeometry width="50" height="50" relative="1" as="geometry">
            <mxPoint x="400" y="510" as="sourcePoint" />
            <mxPoint x="670" y="430" as="targetPoint" />
            <Array as="points">
              <mxPoint x="424" y="430" />
            </Array>
          </mxGeometry>
        </mxCell>
        <mxCell id="O-yn0B9JO9yRSRZrxtQq-87" value="CallBack" style="text;html=1;strokeColor=none;fillColor=none;align=center;verticalAlign=middle;whiteSpace=wrap;rounded=0;" vertex="1" parent="1">
          <mxGeometry x="525" y="410" width="40" height="20" as="geometry" />
        </mxCell>
        <mxCell id="O-yn0B9JO9yRSRZrxtQq-88" value="&lt;b&gt;Externel API&lt;/b&gt;" style="whiteSpace=wrap;html=1;rounded=1;arcSize=3;" vertex="1" parent="1">
          <mxGeometry x="670" y="385.75" width="60" height="90" as="geometry" />
        </mxCell>
        <mxCell id="O-yn0B9JO9yRSRZrxtQq-91" value="Query" style="text;html=1;strokeColor=none;fillColor=none;align=center;verticalAlign=middle;whiteSpace=wrap;rounded=0;" vertex="1" parent="1">
          <mxGeometry x="394" y="440" width="40" height="20" as="geometry" />
        </mxCell>
        <mxCell id="O-yn0B9JO9yRSRZrxtQq-92" value="Store" style="text;html=1;strokeColor=none;fillColor=none;align=center;verticalAlign=middle;whiteSpace=wrap;rounded=0;" vertex="1" parent="1">
          <mxGeometry x="326" y="455.75" width="40" height="20" as="geometry" />
        </mxCell>
      </root>
    </mxGraphModel>
  </diagram>
  <diagram id="SAfugQ6qiYuDxQ_DStO2" name="Page-2">
    <mxGraphModel dx="618" dy="355" grid="1" gridSize="10" guides="1" tooltips="1" connect="1" arrows="1" fold="1" page="1" pageScale="1" pageWidth="1169" pageHeight="827" math="0" shadow="0">
      <root>
        <mxCell id="ejhIgJHc46VJcfn_smyi-0" />
        <mxCell id="ejhIgJHc46VJcfn_smyi-1" parent="ejhIgJHc46VJcfn_smyi-0" />
        <mxCell id="KtDla9zOQPPF1bhfKHeX-16" style="edgeStyle=none;rounded=0;orthogonalLoop=1;jettySize=auto;html=1;entryX=0.5;entryY=0;entryDx=0;entryDy=0;fontSize=10;startArrow=none;startFill=0;endArrow=classicThin;endFill=1;strokeColor=#000000;" edge="1" parent="ejhIgJHc46VJcfn_smyi-1" source="KtDla9zOQPPF1bhfKHeX-10" target="KtDla9zOQPPF1bhfKHeX-11">
          <mxGeometry relative="1" as="geometry" />
        </mxCell>
        <mxCell id="KtDla9zOQPPF1bhfKHeX-10" value="&lt;font color=&quot;#ffffff&quot; style=&quot;font-size: 14px&quot;&gt;Start&lt;br&gt;(API Call)&lt;br&gt;&lt;/font&gt;" style="strokeWidth=2;html=1;shape=mxgraph.flowchart.start_1;whiteSpace=wrap;rounded=1;fontSize=14;fillColor=#004C99;strokeColor=none;" vertex="1" parent="ejhIgJHc46VJcfn_smyi-1">
          <mxGeometry x="445" y="20" width="100" height="60" as="geometry" />
        </mxCell>
        <mxCell id="KtDla9zOQPPF1bhfKHeX-19" value="" style="edgeStyle=none;rounded=0;orthogonalLoop=1;jettySize=auto;html=1;fontSize=14;startArrow=none;startFill=0;endArrow=classicThin;endFill=1;strokeColor=#000000;" edge="1" parent="ejhIgJHc46VJcfn_smyi-1" source="KtDla9zOQPPF1bhfKHeX-11" target="KtDla9zOQPPF1bhfKHeX-18">
          <mxGeometry relative="1" as="geometry" />
        </mxCell>
        <mxCell id="KtDla9zOQPPF1bhfKHeX-11" value="&lt;font color=&quot;#ffffff&quot; style=&quot;font-size: 14px&quot;&gt;Load Env&lt;br&gt;Configs&lt;br&gt;&lt;/font&gt;" style="html=1;dashed=0;whitespace=wrap;rounded=1;fontSize=14;strokeColor=#CCCCCC;fillColor=#004C99;" vertex="1" parent="ejhIgJHc46VJcfn_smyi-1">
          <mxGeometry x="440" y="110" width="110" height="49" as="geometry" />
        </mxCell>
        <mxCell id="KtDla9zOQPPF1bhfKHeX-23" value="" style="edgeStyle=none;rounded=0;orthogonalLoop=1;jettySize=auto;html=1;fontSize=14;startArrow=none;startFill=0;endArrow=classicThin;endFill=1;strokeColor=#000000;" edge="1" parent="ejhIgJHc46VJcfn_smyi-1" source="KtDla9zOQPPF1bhfKHeX-18" target="KtDla9zOQPPF1bhfKHeX-22">
          <mxGeometry relative="1" as="geometry" />
        </mxCell>
        <mxCell id="KtDla9zOQPPF1bhfKHeX-18" value="&lt;font color=&quot;#ffffff&quot; style=&quot;font-size: 14px&quot;&gt;Init Riders&lt;br&gt;&amp;nbsp;&amp;amp; Orders&amp;nbsp;&lt;br&gt;&lt;/font&gt;" style="html=1;dashed=0;whitespace=wrap;rounded=1;fontSize=14;strokeColor=#CCCCCC;fillColor=#004C99;" vertex="1" parent="ejhIgJHc46VJcfn_smyi-1">
          <mxGeometry x="440" y="190" width="110" height="49" as="geometry" />
        </mxCell>
        <mxCell id="KtDla9zOQPPF1bhfKHeX-25" value="" style="edgeStyle=none;rounded=0;orthogonalLoop=1;jettySize=auto;html=1;fontSize=14;startArrow=none;startFill=0;endArrow=classicThin;endFill=1;strokeColor=#000000;" edge="1" parent="ejhIgJHc46VJcfn_smyi-1" source="KtDla9zOQPPF1bhfKHeX-22" target="KtDla9zOQPPF1bhfKHeX-24">
          <mxGeometry relative="1" as="geometry" />
        </mxCell>
        <mxCell id="KtDla9zOQPPF1bhfKHeX-22" value="&lt;font color=&quot;#ffffff&quot; style=&quot;font-size: 14px&quot;&gt;Refresh Rider &lt;br&gt;&amp;amp; Order Status&lt;br&gt;&lt;/font&gt;" style="html=1;dashed=0;whitespace=wrap;rounded=1;fontSize=14;strokeColor=#CCCCCC;fillColor=#004C99;" vertex="1" parent="ejhIgJHc46VJcfn_smyi-1">
          <mxGeometry x="440" y="270" width="110" height="49" as="geometry" />
        </mxCell>
        <mxCell id="KtDla9zOQPPF1bhfKHeX-27" value="" style="edgeStyle=none;rounded=0;orthogonalLoop=1;jettySize=auto;html=1;fontSize=14;startArrow=none;startFill=0;endArrow=classicThin;endFill=1;strokeColor=#000000;" edge="1" parent="ejhIgJHc46VJcfn_smyi-1" source="KtDla9zOQPPF1bhfKHeX-24" target="KtDla9zOQPPF1bhfKHeX-26">
          <mxGeometry relative="1" as="geometry" />
        </mxCell>
        <mxCell id="KtDla9zOQPPF1bhfKHeX-24" value="&lt;font color=&quot;#ffffff&quot; style=&quot;font-size: 14px&quot;&gt;Call AI model&lt;br&gt;Distribute API&lt;br&gt;&lt;/font&gt;" style="html=1;dashed=0;whitespace=wrap;rounded=1;fontSize=14;strokeColor=#CCCCCC;fillColor=#004C99;" vertex="1" parent="ejhIgJHc46VJcfn_smyi-1">
          <mxGeometry x="440" y="350" width="110" height="49" as="geometry" />
        </mxCell>
        <mxCell id="KtDla9zOQPPF1bhfKHeX-30" style="edgeStyle=none;rounded=0;orthogonalLoop=1;jettySize=auto;html=1;exitX=1;exitY=0.5;exitDx=0;exitDy=0;entryX=1;entryY=0.5;entryDx=0;entryDy=0;fontSize=14;startArrow=none;startFill=0;endArrow=classicThin;endFill=1;strokeColor=#000000;" edge="1" parent="ejhIgJHc46VJcfn_smyi-1" source="KtDla9zOQPPF1bhfKHeX-31" target="KtDla9zOQPPF1bhfKHeX-22">
          <mxGeometry relative="1" as="geometry">
            <Array as="points">
              <mxPoint x="600" y="550" />
              <mxPoint x="600" y="295" />
            </Array>
          </mxGeometry>
        </mxCell>
        <mxCell id="KtDla9zOQPPF1bhfKHeX-33" value="No" style="edgeLabel;html=1;align=center;verticalAlign=middle;resizable=0;points=[];fontSize=14;" vertex="1" connectable="0" parent="KtDla9zOQPPF1bhfKHeX-30">
          <mxGeometry x="-0.8717" y="-1" relative="1" as="geometry">
            <mxPoint as="offset" />
          </mxGeometry>
        </mxCell>
        <mxCell id="KtDla9zOQPPF1bhfKHeX-32" value="" style="edgeStyle=none;rounded=0;orthogonalLoop=1;jettySize=auto;html=1;fontSize=14;startArrow=none;startFill=0;endArrow=classicThin;endFill=1;strokeColor=#000000;" edge="1" parent="ejhIgJHc46VJcfn_smyi-1" source="KtDla9zOQPPF1bhfKHeX-26" target="KtDla9zOQPPF1bhfKHeX-31">
          <mxGeometry relative="1" as="geometry" />
        </mxCell>
        <mxCell id="KtDla9zOQPPF1bhfKHeX-26" value="&lt;font color=&quot;#ffffff&quot; style=&quot;font-size: 14px&quot;&gt;Record New &lt;br&gt;Plan Route&lt;br&gt;&lt;/font&gt;" style="html=1;dashed=0;whitespace=wrap;rounded=1;fontSize=14;strokeColor=#CCCCCC;fillColor=#004C99;" vertex="1" parent="ejhIgJHc46VJcfn_smyi-1">
          <mxGeometry x="440" y="430" width="110" height="49" as="geometry" />
        </mxCell>
        <mxCell id="KtDla9zOQPPF1bhfKHeX-37" value="" style="edgeStyle=none;rounded=0;orthogonalLoop=1;jettySize=auto;html=1;fontSize=14;startArrow=none;startFill=0;endArrow=classicThin;endFill=1;strokeColor=#000000;entryX=0.5;entryY=0;entryDx=0;entryDy=0;entryPerimeter=0;" edge="1" parent="ejhIgJHc46VJcfn_smyi-1" source="KtDla9zOQPPF1bhfKHeX-31" target="KtDla9zOQPPF1bhfKHeX-40">
          <mxGeometry relative="1" as="geometry">
            <mxPoint x="495" y="750" as="targetPoint" />
          </mxGeometry>
        </mxCell>
        <mxCell id="KtDla9zOQPPF1bhfKHeX-41" value="Yes" style="edgeLabel;html=1;align=center;verticalAlign=middle;resizable=0;points=[];fontSize=14;" vertex="1" connectable="0" parent="KtDla9zOQPPF1bhfKHeX-37">
          <mxGeometry x="0.2471" relative="1" as="geometry">
            <mxPoint y="-5" as="offset" />
          </mxGeometry>
        </mxCell>
        <mxCell id="KtDla9zOQPPF1bhfKHeX-31" value="&lt;font color=&quot;#ffffff&quot;&gt;Is&lt;br&gt;finished&lt;/font&gt;" style="rhombus;whiteSpace=wrap;html=1;rounded=1;dashed=0;fontSize=14;strokeColor=#CCCCCC;fillColor=#004C99;" vertex="1" parent="ejhIgJHc46VJcfn_smyi-1">
          <mxGeometry x="455" y="510" width="80" height="80" as="geometry" />
        </mxCell>
        <mxCell id="KtDla9zOQPPF1bhfKHeX-40" value="&lt;font color=&quot;#ffffff&quot; style=&quot;font-size: 14px&quot;&gt;End&lt;br&gt;(Run evaluator)&lt;br&gt;&lt;/font&gt;" style="strokeWidth=2;html=1;shape=mxgraph.flowchart.start_1;whiteSpace=wrap;rounded=1;fontSize=14;fillColor=#004C99;strokeColor=none;" vertex="1" parent="ejhIgJHc46VJcfn_smyi-1">
          <mxGeometry x="445" y="620" width="100" height="60" as="geometry" />
        </mxCell>
      </root>
    </mxGraphModel>
  </diagram>
</mxfile>
